<?xml version="1.0" standalone="no"?>
<!DOCTYPE svg PUBLIC "-//W3C//DTD SVG 20010904//EN"
 "http://www.w3.org/TR/2001/REC-SVG-20010904/DTD/svg10.dtd">
<svg version="1.0" xmlns="http://www.w3.org/2000/svg"
 width="512.000000pt" height="512.000000pt" viewBox="0 0 512.000000 512.000000"
 preserveAspectRatio="xMidYMid meet">

<g transform="translate(0.000000,512.000000) scale(0.100000,-0.100000)"
fill="#000000" stroke="none">
<path d="M626 5099 c-267 -31 -490 -215 -579 -479 -36 -106 -37 -173 -37
-2086 0 -2119 -6 -1962 77 -2134 39 -81 58 -108 133 -182 73 -72 102 -93 181
-131 52 -25 119 -51 149 -59 45 -11 406 -13 2015 -13 l1960 0 75 23 c126 40
206 88 301 182 74 72 93 99 132 180 84 173 78 9 75 2195 l-3 1940 -23 70 c-43
127 -90 204 -182 295 -91 92 -168 139 -295 182 l-70 23 -1920 1 c-1056 1
-1951 -2 -1989 -7z m1666 -1283 c382 -97 605 -179 745 -272 181 -120 254 -278
255 -554 1 -137 -14 -215 -56 -297 -75 -148 -234 -202 -411 -141 l-70 24 -5
404 c-3 270 -9 413 -16 430 -24 51 -90 88 -124 70 -46 -24 -45 -6 -50 -986
l-5 -930 -240 76 -240 75 -3 1073 -2 1072 25 0 c13 0 102 -20 197 -44z m-312
-1389 l0 -144 -247 -88 c-314 -111 -340 -124 -327 -158 7 -19 25 -26 92 -37
84 -14 185 4 337 60 75 27 139 50 141 50 2 0 4 -58 4 -129 l0 -129 -32 -6
c-18 -4 -116 -9 -218 -12 -148 -5 -207 -3 -294 11 -213 33 -401 104 -452 170
-69 91 -23 169 146 248 55 26 821 304 843 306 4 1 7 -64 7 -142z m2323 98 c-3
-9 -8 -14 -10 -11 -3 3 -2 9 2 15 9 16 15 13 8 -4z m-833 -101 c118 -20 325
-87 385 -125 55 -35 85 -81 85 -133 0 -33 -7 -46 -43 -80 -23 -23 -65 -53 -93
-68 -40 -22 -1062 -395 -1137 -416 -16 -4 -17 6 -15 138 l3 143 407 144 c371
132 448 166 448 193 0 17 -59 40 -118 46 -91 10 -168 -9 -461 -111 -150 -52
-274 -95 -277 -95 -2 0 -3 66 -2 147 l3 146 55 19 c68 23 230 56 330 68 101
12 313 4 430 -16z"/>
</g>
</svg>
